<svg width="110" height="111" viewBox="0 0 110 111" fill="none" xmlns="http://www.w3.org/2000/svg">
<g filter="url(#filter0_d_30_195)">
<circle cx="55" cy="51.5" r="35" fill="#25B4F8"/>
</g>
<g clip-path="url(#clip0_30_195)">
<path d="M72.2973 31.751C71.1423 30.719 69.8246 29.879 68.3876 29.2985C66.9153 28.7038 65.3418 28.3873 63.7578 28.3108C63.4758 28.2973 63.1931 28.2913 62.9111 28.2913C61.4328 28.295 59.9148 28.679 58.5191 29.4028C56.3171 30.545 53.6898 30.5443 51.4886 29.4028C50.0928 28.679 48.5741 28.295 47.0966 28.2913C45.5058 28.2913 43.9158 28.5088 42.4031 29.0113C40.9331 29.4995 39.5576 30.2503 38.3456 31.214C38.1296 31.3858 37.9173 31.565 37.7111 31.7503C34.6503 34.493 33.0168 38.5925 33.2291 43.0003C33.4338 46.9895 34.7516 52.3228 39.7338 55.481C39.7053 56.5903 39.6828 57.7318 39.7608 58.886C39.8141 59.588 39.8748 60.3838 39.9993 61.1743C40.6743 65.5408 42.0063 70.4225 46.7658 73.5208C47.9081 74.264 49.7553 75.341 51.0041 74.1695C51.8756 73.3513 52.0938 71.876 52.1553 70.7398C52.1576 70.6865 52.4463 65.7965 55.0383 60.9635C56.0853 62.6908 57.7233 66.1258 58.3031 71.3893C58.4658 72.8668 59.1026 74.7095 60.8936 74.7095C61.8258 74.7095 62.6703 74.1935 63.0063 73.9888C65.8248 72.269 67.7913 69.9305 69.0183 66.8413C70.4831 63.1678 70.6271 59.5948 70.3383 55.4465C75.2906 52.2703 76.5828 46.9633 76.7688 42.992C76.9923 38.5858 75.3618 34.4885 72.2973 31.751ZM60.7436 51.0523C59.4656 50.153 57.6858 49.151 55.6436 48.4048C55.1966 48.2413 54.7968 48.1273 54.3581 48.4048C52.3211 49.1488 50.5451 50.147 49.2686 51.0448C49.0466 48.1153 48.1886 45.1595 47.3921 43.0145L52.7141 44.396C54.3656 44.8258 56.1093 44.8153 57.7548 44.366L62.5908 43.0063C61.8131 45.1745 60.9626 48.128 60.7436 51.0523ZM55.7928 58.1345C55.5581 57.8743 55.2191 57.7385 54.8673 57.7663C54.5186 57.794 54.2021 57.983 54.0123 58.2778C50.2968 64.0318 49.9241 70.3543 49.9106 70.619C49.9098 70.6273 49.9083 70.6348 49.9083 70.643C46.9668 63.5803 48.7961 55.5328 49.1846 54.0193C49.6121 53.504 51.9198 51.7183 55.0008 50.5655C58.1283 51.7355 60.4616 53.5603 60.8373 54.0433C61.2836 55.5125 63.5268 63.7213 60.5036 70.8613C59.4963 62.342 55.9458 58.3025 55.7928 58.1345ZM47.8301 71.519C43.9481 68.8933 42.8126 64.6498 42.2216 60.8255C42.1106 60.122 42.0536 59.3735 42.0041 58.7225C41.9276 57.6013 41.9568 56.4845 41.9876 55.3003C42.0041 54.6298 41.9291 54.176 41.3126 53.8175C36.8208 51.2083 35.6568 46.4353 35.4746 42.8855C35.2953 39.161 36.6566 35.7118 39.2111 33.4228C40.7508 32.0428 42.6393 31.1218 44.6726 30.7483C46.6466 30.386 48.6431 30.4595 50.4513 31.397C53.3006 32.8745 56.7033 32.8753 59.5533 31.397C60.6318 30.8375 61.7943 30.5405 62.9156 30.5383C64.4913 30.5383 66.0656 30.7918 67.5311 31.3813C68.7296 31.8635 69.8343 32.5618 70.7958 33.4243C73.3511 35.7073 74.7101 39.152 74.5226 42.8788C74.3561 46.4518 73.1966 51.2548 68.6238 53.8685C68.2871 54.0613 68.0148 54.53 68.0523 54.9418C68.3801 59.0735 68.3141 62.5355 66.9296 66.0073C66.0161 68.3075 64.6203 70.115 62.6793 71.5078C64.8828 66.1355 64.7336 59.8828 63.2606 54.3343C62.3516 50.9113 63.5426 47.018 64.7073 43.7653C64.9871 42.9845 64.8108 42.122 64.2476 41.5115C63.6783 40.898 62.8233 40.6528 62.0201 40.8718L57.1616 42.194C55.8933 42.539 54.5508 42.5473 53.2773 42.2173L47.9553 40.8358C47.1521 40.6265 46.3046 40.8785 45.7443 41.492C45.1878 42.1018 45.0153 42.9613 45.2936 43.736C46.4051 46.8328 47.6051 50.2985 46.9511 53.6263C46.5123 55.8568 46.1088 58.043 46.0173 60.3253C45.9446 62.1433 46.0188 63.9695 46.2761 65.771C46.4846 67.229 46.8176 68.6855 47.2878 70.082C47.2878 70.082 47.6208 71.261 47.8301 71.519Z" fill="white" stroke="#25B4F8" stroke-width="0.7"/>
</g>
<defs>
<filter id="filter0_d_30_195" x="0" y="0.5" width="110" height="110" filterUnits="userSpaceOnUse" color-interpolation-filters="sRGB">
<feFlood flood-opacity="0" result="BackgroundImageFix"/>
<feColorMatrix in="SourceAlpha" type="matrix" values="0 0 0 0 0 0 0 0 0 0 0 0 0 0 0 0 0 0 127 0" result="hardAlpha"/>
<feOffset dy="4"/>
<feGaussianBlur stdDeviation="10"/>
<feComposite in2="hardAlpha" operator="out"/>
<feColorMatrix type="matrix" values="0 0 0 0 0.145098 0 0 0 0 0.705882 0 0 0 0 0.972549 0 0 0 0.25 0"/>
<feBlend mode="normal" in2="BackgroundImageFix" result="effect1_dropShadow_30_195"/>
<feBlend mode="normal" in="SourceGraphic" in2="effect1_dropShadow_30_195" result="shape"/>
</filter>
<clipPath id="clip0_30_195">
<rect width="48" height="48" fill="white" transform="translate(31 27.5)"/>
</clipPath>
</defs>
</svg>
