<svg width="111" height="110" viewBox="0 0 111 110" fill="none" xmlns="http://www.w3.org/2000/svg">
<g filter="url(#filter0_d_98_864)">
<circle cx="55.5" cy="51" r="35" fill="#25B4F8"/>
</g>
<g clip-path="url(#clip0_98_864)">
<path d="M37.1922 56.4529L37.1922 56.4602L37.1943 56.4673C39.7314 64.8658 45.0361 70.8325 53.7749 74.5734C53.8191 74.5923 53.8827 74.621 53.9587 74.6553C53.9818 74.6657 54.006 74.6767 54.0312 74.688C54.1389 74.7365 54.2633 74.792 54.387 74.8444C54.5105 74.8967 54.6342 74.9463 54.7404 74.9829C54.8443 75.0186 54.9387 75.0446 55.0004 75.0446C55.0618 75.0446 55.1562 75.0186 55.2599 74.9829C55.366 74.9464 55.4897 74.8969 55.6132 74.8446C55.7369 74.7922 55.8612 74.7368 55.9689 74.6884C55.9944 74.6769 56.019 74.6658 56.0423 74.6553C56.1179 74.6212 56.1811 74.5927 56.2249 74.574C64.9587 70.8362 70.2733 64.863 72.8056 56.4676L72.8077 56.4605L72.8077 56.4532L72.8319 36.3837V36.3836C72.8319 36.2528 72.8018 36.144 72.7399 36.0554C72.6782 35.967 72.5879 35.9032 72.4751 35.8569C72.2521 35.7653 71.9293 35.7375 71.5275 35.7296C71.3232 35.7256 71.0969 35.7267 70.85 35.728C70.1192 35.7317 69.2078 35.7363 68.1504 35.6107C65.3264 35.2752 61.4684 34.0103 57.3414 29.3022C57.0043 28.9177 56.7217 28.5812 56.4797 28.2925L56.4481 28.2548C56.2203 27.983 56.0285 27.7542 55.8615 27.5693C55.6872 27.3763 55.5378 27.2287 55.4005 27.1293C55.2629 27.0296 55.1335 26.9754 54.9998 26.9754C54.8662 26.9754 54.7368 27.0296 54.5991 27.1293C54.4619 27.2287 54.3125 27.3763 54.1382 27.5693C53.9713 27.7542 53.7795 27.983 53.5517 28.2548L53.5201 28.2925C53.2782 28.5812 52.9955 28.9177 52.6585 29.3022L52.6961 29.3352L52.6585 29.3022C48.5313 34.0105 44.6734 35.2754 41.8495 35.6108C40.7922 35.7364 39.8808 35.7317 39.15 35.728C38.9031 35.7267 38.6769 35.7256 38.4725 35.7296C38.0708 35.7375 37.7481 35.7653 37.5251 35.8569C37.4123 35.9032 37.322 35.967 37.2602 36.0554C37.1983 36.144 37.1683 36.2528 37.1683 36.3836L37.1683 36.3837L37.1922 56.4529ZM38.3927 56.1993V36.9823L40.2397 36.9412C45.3554 36.8284 49.5948 34.6548 53.58 30.1095L53.5424 30.0765L53.58 30.1095L55.0001 28.4894L56.4202 30.1095L56.4578 30.0765L56.4202 30.1095C60.4053 34.6545 64.6448 36.8284 69.7599 36.9412L71.6069 36.9823V56.1996L71.5263 56.4668C69.1426 64.368 63.9819 69.9217 55.7432 73.4479L55.0004 73.766L54.2567 73.4476C45.8052 69.8295 40.8405 64.2876 38.3927 56.1993Z" fill="white" stroke="white" stroke-width="0.1"/>
<path d="M39.6939 56.0831L39.6939 56.0905L39.696 56.0975C41.9642 63.6157 46.8941 68.9075 54.7596 72.2743C54.8362 72.307 54.9183 72.3236 55.0004 72.3236H55.0007C55.0827 72.3236 55.1648 72.3071 55.241 72.2742C63.1065 68.908 68.036 63.616 70.3044 56.0978L70.3066 56.0908L70.3066 56.0834L70.3308 38.8298V38.8297C70.3308 38.4971 70.0643 38.2251 69.7317 38.2178C64.2365 38.0961 59.7023 35.7895 55.4604 30.9507C55.227 30.6841 54.7726 30.6841 54.5392 30.9507C50.2973 35.7892 45.7637 38.0958 40.2685 38.2175C39.9356 38.2249 39.6697 38.4965 39.6697 38.8294L39.6697 38.8295L39.6939 56.0831ZM69.1058 55.8295C66.9607 62.8561 62.347 67.835 55.0004 71.0434C47.6541 67.835 43.0401 62.8564 40.8947 55.8295V39.4195C46.2263 39.1465 50.8531 36.8001 55.0004 32.2714C59.1477 36.7998 63.7739 39.1462 69.1058 39.4195V55.8295Z" fill="white" stroke="white" stroke-width="0.1"/>
<path d="M51.382 61.9908L51.3821 61.9909C51.4796 62.0675 51.5945 62.1108 51.7114 62.1205V62.1228H51.7614C51.9453 62.1228 52.1403 62.0329 52.2606 61.8747C52.3826 61.7144 52.425 61.4882 52.3101 61.2245C51.6568 59.2977 52.0954 57.7453 52.8172 56.5945C53.5269 55.4629 54.5107 54.7194 55.0013 54.3945C55.4969 54.7204 56.4919 55.4688 57.2025 56.6124C57.9252 57.7756 58.3543 59.3482 57.6622 61.3066L57.6622 61.3066C57.4602 61.8793 58.1409 62.3685 58.6189 61.9914C62.8854 58.6278 62.916 54.2286 62.3714 50.6867C63.7641 49.6708 64.5839 48.0703 64.5839 46.3283C64.5839 41.5182 58.9281 39.3875 55.6665 42.215C55.3108 42.5233 55.0643 42.5895 54.8411 42.5357C54.7267 42.5081 54.6139 42.448 54.4914 42.3636C54.3881 42.2923 54.2805 42.2057 54.1609 42.1092C54.1385 42.0912 54.1156 42.0727 54.0923 42.054C53.7978 41.8177 53.4355 41.5395 52.925 41.3209C52.4143 41.1022 51.7575 40.9441 50.8738 40.9441C45.5448 40.9441 43.4467 47.6391 47.6295 50.6861C47.0849 54.2281 47.1158 58.6269 51.382 61.9908ZM61.382 49.8774L61.382 49.8774C61.1707 50.0085 61.0595 50.2538 61.1008 50.4988C61.7926 54.6291 61.2277 57.5002 59.2249 59.7544C59.3391 57.7589 58.4427 56.1026 57.4459 54.9395C56.9352 54.3437 56.3973 53.8761 55.9528 53.5572C55.7306 53.3977 55.5311 53.275 55.3696 53.1919C55.2889 53.1503 55.217 53.1183 55.1559 53.0966C55.096 53.0753 55.0427 53.0624 55.0006 53.0624H55.0003C54.9582 53.0624 54.9048 53.0753 54.8448 53.0966C54.7837 53.1183 54.7117 53.1503 54.631 53.1919C54.4694 53.2751 54.2699 53.3978 54.0476 53.5573C53.6031 53.8764 53.0652 54.344 52.5546 54.9399C51.5579 56.103 50.6618 57.7592 50.7759 59.7538C48.7729 57.4994 48.2083 54.6285 48.9001 50.4983C48.9411 50.2532 48.8299 50.0079 48.6189 49.8769L48.6189 49.8769C47.3809 49.1089 46.642 47.7825 46.642 46.3281C46.642 44.4132 47.7532 43.0877 49.1706 42.5044C50.5897 41.9204 52.3122 42.0819 53.5315 43.1402C54.0958 43.6299 54.5519 43.8195 54.9668 43.8183C55.3805 43.8172 55.7424 43.6262 56.1164 43.3812C56.219 43.3139 56.3229 43.2424 56.4295 43.169C57.1023 42.7059 57.8814 42.1694 59.1271 42.1694C63.5063 42.1694 64.8826 47.7069 61.382 49.8774Z" fill="white" stroke="white" stroke-width="0.1"/>
<path d="M52.5311 44.7532L52.5311 44.7532C52.6488 44.6174 52.7667 44.5452 52.8898 44.5269C53.0124 44.5087 53.1309 44.5454 53.247 44.6083C53.3627 44.6709 53.4814 44.7624 53.6049 44.8606C53.6204 44.8729 53.636 44.8853 53.6517 44.8978C53.7623 44.986 53.8782 45.0784 54.0041 45.1638C54.2906 45.3581 54.623 45.5121 55.0393 45.4845C55.4563 45.4568 55.9663 45.2462 56.6055 44.6919L56.6055 44.6919C56.7558 44.5616 56.9211 44.519 57.075 44.54C57.2275 44.5609 57.3652 44.6438 57.4641 44.7579C57.5631 44.8721 57.6256 45.02 57.6246 45.174C57.6236 45.3293 57.5579 45.4868 57.4076 45.6172L57.4076 45.6172C56.5873 46.3281 55.795 46.7326 55.0005 46.7327L52.5311 44.7532ZM52.5311 44.7532C52.4321 44.8674 52.3826 44.9877 52.3772 45.111C52.3719 45.2335 52.4106 45.354 52.4791 45.4689C52.6153 45.6972 52.8748 45.9128 53.1769 46.0978C53.4802 46.2836 53.8318 46.442 54.1586 46.554C54.4842 46.6655 54.7897 46.7327 55.0003 46.7327L52.5311 44.7532Z" fill="white" stroke="white" stroke-width="0.1"/>
</g>
<defs>
<filter id="filter0_d_98_864" x="0.5" y="0" width="110" height="110" filterUnits="userSpaceOnUse" color-interpolation-filters="sRGB">
<feFlood flood-opacity="0" result="BackgroundImageFix"/>
<feColorMatrix in="SourceAlpha" type="matrix" values="0 0 0 0 0 0 0 0 0 0 0 0 0 0 0 0 0 0 127 0" result="hardAlpha"/>
<feOffset dy="4"/>
<feGaussianBlur stdDeviation="10"/>
<feComposite in2="hardAlpha" operator="out"/>
<feColorMatrix type="matrix" values="0 0 0 0 0.145098 0 0 0 0 0.705882 0 0 0 0 0.972549 0 0 0 0.25 0"/>
<feBlend mode="normal" in2="BackgroundImageFix" result="effect1_dropShadow_98_864"/>
<feBlend mode="normal" in="SourceGraphic" in2="effect1_dropShadow_98_864" result="shape"/>
</filter>
<clipPath id="clip0_98_864">
<rect width="48" height="48" fill="white" transform="translate(31 27)"/>
</clipPath>
</defs>
</svg>
