<svg width="110" height="111" viewBox="0 0 110 111" fill="none" xmlns="http://www.w3.org/2000/svg">
<g filter="url(#filter0_d_98_818)">
<circle cx="55" cy="51.5" r="35" fill="#25B4F8"/>
</g>
<g clip-path="url(#clip0_98_818)">
<path d="M38.9879 30.8651C38.9311 30.5294 38.6682 30.2665 38.3325 30.2097C37.029 29.9919 36.0077 28.9703 35.7903 27.6667C35.7166 27.2311 35.3037 26.9376 34.8682 27.0113C34.5325 27.0681 34.2696 27.331 34.2128 27.6667C33.9954 28.9703 32.9741 29.992 31.6706 30.2097C31.235 30.2834 30.9415 30.6963 31.0152 31.1318C31.072 31.4675 31.3349 31.7304 31.6706 31.7872C32.9741 32.005 33.9954 33.0266 34.2128 34.3302C34.2865 34.7658 34.6994 35.0593 35.1349 34.9856C35.4706 34.9288 35.7335 34.6659 35.7903 34.3302C36.0077 33.0266 37.029 32.005 38.3325 31.7872C38.7681 31.7136 39.0616 31.3007 38.9879 30.8651ZM35.0016 32.1408C34.6897 31.6969 34.3031 31.3103 33.8592 30.9984C34.3031 30.6866 34.6897 30.3 35.0016 29.8561C35.3134 30.3 35.7 30.6866 36.1439 30.9984C35.6999 31.3104 35.3134 31.6969 35.0016 32.1408Z" fill="white"/>
<path d="M62.7802 31.7978C61.2329 31.7977 59.7018 32.112 58.2797 32.7218C56.1843 33.6144 53.8155 33.6144 51.7201 32.7218C45.9238 30.2367 39.2103 32.921 36.7252 38.7174C36.1155 40.1395 35.8012 41.6705 35.8013 43.2178C35.7997 47.9288 37.1237 52.5452 39.6218 56.5393L39.8506 56.9065L43.3047 72.1054C43.759 74.107 45.75 75.3615 47.7516 74.9072C49.2241 74.573 50.348 73.3813 50.5954 71.8918L52.9953 57.4976C53.1809 56.39 54.2294 55.6428 55.337 55.8284C56.1924 55.9719 56.8628 56.6422 57.0062 57.4976L59.406 71.891C59.7438 73.9161 61.6591 75.2839 63.6842 74.9462C65.1724 74.698 66.3629 73.575 66.6975 72.1038L70.1508 56.9049L70.3796 56.5377C72.8769 52.5439 74.2003 47.9281 74.1985 43.2178C74.1989 36.9112 69.0867 31.7983 62.7802 31.7978ZM69.0213 55.6922L68.7205 56.1721C68.6733 56.2482 68.6388 56.3314 68.6181 56.4185L65.136 71.747C64.8767 72.8873 63.7421 73.6016 62.6018 73.3423C61.7638 73.1518 61.1242 72.4738 60.9827 71.6262L58.5829 57.2328C58.2525 55.2541 56.3805 53.9177 54.4017 54.2482C52.8715 54.5036 51.6724 55.7027 51.417 57.2328L49.0171 71.627C48.826 72.7802 47.7361 73.5603 46.5829 73.3691C45.734 73.2284 45.0547 72.5879 44.8646 71.7486L41.3817 56.4193C41.361 56.3322 41.3265 56.249 41.2793 56.1729L40.9785 55.693C38.6396 51.9524 37.4 47.6294 37.4012 43.2178C37.4074 37.7973 41.7999 33.4047 47.2205 33.3985C48.5506 33.3971 49.8669 33.6671 51.089 34.1921C53.5873 35.258 56.4125 35.258 58.9108 34.1921C63.896 32.056 69.6689 34.3656 71.8049 39.3507C72.3286 40.5727 72.5986 41.8883 72.5987 43.2178C72.5997 47.6292 71.3601 51.9518 69.0213 55.6922Z" fill="white"/>
<path d="M44.6004 37.3972L44.4405 36.6133C42.8406 36.9341 39.8008 38.6811 39.8008 42.9968H41.4007C41.4007 38.9403 44.6244 38.21 44.7604 38.1804L44.6004 37.3972Z" fill="white"/>
<path d="M47.8006 36.5977H46.2007V38.1975H47.8006V36.5977Z" fill="white"/>
<path d="M78.9849 64.4627C78.9281 64.127 78.6653 63.8642 78.3296 63.8074C77.0261 63.5896 76.0048 62.5679 75.7874 61.2643C75.7137 60.8288 75.3008 60.5353 74.8652 60.609C74.5296 60.6658 74.2667 60.9287 74.2099 61.2643C73.9925 62.5679 72.9712 63.5896 71.6677 63.8074C71.2321 63.8811 70.9386 64.2939 71.0123 64.7295C71.0691 65.0652 71.332 65.3281 71.6677 65.3848C72.9712 65.6026 73.9925 66.6243 74.2099 67.9279C74.2836 68.3634 74.6964 68.6569 75.132 68.5832C75.4677 68.5264 75.7306 68.2635 75.7874 67.9279C76.0048 66.6243 77.0261 65.6026 78.3296 65.3848C78.7652 65.3113 79.0586 64.8984 78.9849 64.4627ZM74.9986 65.7384C74.6867 65.2946 74.3002 64.908 73.8563 64.5961C74.3002 64.2842 74.6867 63.8977 74.9986 63.4538C75.3105 63.8977 75.6971 64.2842 76.1409 64.5961C75.697 64.9081 75.3105 65.2946 74.9986 65.7384Z" fill="white"/>
</g>
<defs>
<filter id="filter0_d_98_818" x="0" y="0.5" width="110" height="110" filterUnits="userSpaceOnUse" color-interpolation-filters="sRGB">
<feFlood flood-opacity="0" result="BackgroundImageFix"/>
<feColorMatrix in="SourceAlpha" type="matrix" values="0 0 0 0 0 0 0 0 0 0 0 0 0 0 0 0 0 0 127 0" result="hardAlpha"/>
<feOffset dy="4"/>
<feGaussianBlur stdDeviation="10"/>
<feComposite in2="hardAlpha" operator="out"/>
<feColorMatrix type="matrix" values="0 0 0 0 0.145098 0 0 0 0 0.705882 0 0 0 0 0.972549 0 0 0 0.25 0"/>
<feBlend mode="normal" in2="BackgroundImageFix" result="effect1_dropShadow_98_818"/>
<feBlend mode="normal" in="SourceGraphic" in2="effect1_dropShadow_98_818" result="shape"/>
</filter>
<clipPath id="clip0_98_818">
<rect width="48" height="48" fill="white" transform="translate(31 27)"/>
</clipPath>
</defs>
</svg>
