<svg width="24" height="25" viewBox="0 0 24 25" fill="none" xmlns="http://www.w3.org/2000/svg">
<mask id="mask0_13_227" style="mask-type:alpha" maskUnits="userSpaceOnUse" x="0" y="0" width="24" height="25">
<rect y="0.986572" width="24" height="24" fill="#D9D9D9"/>
</mask>
<g mask="url(#mask0_13_227)">
<path d="M12 16.9866C13.25 16.9866 14.3125 16.5491 15.1875 15.6741C16.0625 14.7991 16.5 13.7366 16.5 12.4866C16.5 11.2366 16.0625 10.1741 15.1875 9.29907C14.3125 8.42407 13.25 7.98657 12 7.98657C10.75 7.98657 9.6875 8.42407 8.8125 9.29907C7.9375 10.1741 7.5 11.2366 7.5 12.4866C7.5 13.7366 7.9375 14.7991 8.8125 15.6741C9.6875 16.5491 10.75 16.9866 12 16.9866ZM12 15.1866C11.25 15.1866 10.6125 14.9241 10.0875 14.3991C9.5625 13.8741 9.3 13.2366 9.3 12.4866C9.3 11.7366 9.5625 11.0991 10.0875 10.5741C10.6125 10.0491 11.25 9.78657 12 9.78657C12.75 9.78657 13.3875 10.0491 13.9125 10.5741C14.4375 11.0991 14.7 11.7366 14.7 12.4866C14.7 13.2366 14.4375 13.8741 13.9125 14.3991C13.3875 14.9241 12.75 15.1866 12 15.1866ZM12 19.9866C9.56667 19.9866 7.35 19.3074 5.35 17.9491C3.35 16.5907 1.9 14.7699 1 12.4866C1.9 10.2032 3.35 8.38241 5.35 7.02407C7.35 5.66574 9.56667 4.98657 12 4.98657C14.4333 4.98657 16.65 5.66574 18.65 7.02407C20.65 8.38241 22.1 10.2032 23 12.4866C22.1 14.7699 20.65 16.5907 18.65 17.9491C16.65 19.3074 14.4333 19.9866 12 19.9866ZM12 17.9866C13.8833 17.9866 15.6125 17.4907 17.1875 16.4991C18.7625 15.5074 19.9667 14.1699 20.8 12.4866C19.9667 10.8032 18.7625 9.46574 17.1875 8.47407C15.6125 7.48241 13.8833 6.98657 12 6.98657C10.1167 6.98657 8.3875 7.48241 6.8125 8.47407C5.2375 9.46574 4.03333 10.8032 3.2 12.4866C4.03333 14.1699 5.2375 15.5074 6.8125 16.4991C8.3875 17.4907 10.1167 17.9866 12 17.9866Z" fill="#3C4959"/>
</g>
</svg>
