<svg width="110" height="111" viewBox="0 0 110 111" fill="none" xmlns="http://www.w3.org/2000/svg">
<g filter="url(#filter0_d_30_204)">
<circle cx="55" cy="51.0664" r="35" fill="#25B4F8"/>
</g>
<g clip-path="url(#clip0_30_204)">
<path d="M37.5693 46.246C39.768 50.4432 43.1255 53.0496 46.345 54.6656C51.4901 57.248 57.0276 57.574 62.2604 55.6466L62.3555 55.6118" stroke="white" stroke-width="1.5" stroke-miterlimit="10" stroke-linecap="round" stroke-linejoin="round"/>
<path d="M65.3091 54.248C68.2694 52.612 71.2673 50.1031 73.2863 46.2624" stroke="white" stroke-width="1.5" stroke-miterlimit="10" stroke-linecap="round" stroke-linejoin="round"/>
<path d="M32.1931 45.583C32.9966 46.5486 33.8059 47.5072 34.6171 48.4636C38.6876 53.2631 42.6466 57.9842 47.9514 60.846C53.0462 63.5948 57.9405 63.6017 63.0487 60.8459C68.3533 57.9842 72.3124 53.2631 76.3828 48.4636C77.194 47.5072 78.0034 46.5486 78.8068 45.583" stroke="white" stroke-width="1.5" stroke-miterlimit="10" stroke-linecap="round" stroke-linejoin="round"/>
<path d="M50.9175 47.2009V50.3193C50.9175 50.8139 51.3184 51.2148 51.813 51.2148H54.5851C55.0796 51.2148 55.4806 50.8139 55.4806 50.3193V47.2927" stroke="white" stroke-width="1.5" stroke-miterlimit="10" stroke-linecap="round" stroke-linejoin="round"/>
<path d="M55.4875 47.2927V50.3193C55.4875 50.814 55.8885 51.2148 56.383 51.2148H59.1552C59.6498 51.2148 60.0506 50.814 60.0506 50.3193V47.2009" stroke="white" stroke-width="1.5" stroke-miterlimit="10" stroke-linecap="round" stroke-linejoin="round"/>
<path d="M60.0825 47.2009V50.4429C60.0825 50.8692 60.4282 51.2148 60.8545 51.2148H63.244C63.6702 51.2148 64.0158 50.8692 64.0158 50.4429V47.0193" stroke="white" stroke-width="1.5" stroke-miterlimit="10" stroke-linecap="round" stroke-linejoin="round"/>
<path d="M64.0159 47.0204V49.131C64.0159 49.5343 64.3429 49.8613 64.7462 49.8613H67.007C67.4104 49.8613 67.7374 49.5343 67.7374 49.131V46.7698" stroke="white" stroke-width="1.5" stroke-miterlimit="10" stroke-linecap="round" stroke-linejoin="round"/>
<path d="M50.9172 47.2009V50.4429C50.9172 50.8692 50.5715 51.2148 50.1452 51.2148H47.7557C47.3294 51.2148 46.9839 50.8692 46.9839 50.4429V47.0193" stroke="white" stroke-width="1.5" stroke-miterlimit="10" stroke-linecap="round" stroke-linejoin="round"/>
<path d="M46.9842 47.0205V49.131C46.9842 49.5343 46.6572 49.8613 46.2539 49.8613H43.9931C43.5897 49.8613 43.2627 49.5343 43.2627 49.131V46.7698" stroke="white" stroke-width="1.5" stroke-miterlimit="10" stroke-linecap="round" stroke-linejoin="round"/>
<path d="M46.9423 38.1996C49.8597 37.134 52.84 36.9418 55.4999 39.2567C60.6944 34.7362 67.1106 39.7765 71.8932 42.2106C74.1779 43.3734 76.5022 44.4476 78.7971 45.5879C78.7971 45.5879 67.7393 47.2364 55.5097 47.293V47.2932C55.5065 47.2932 55.5032 47.2931 55.4999 47.2931C55.4968 47.2931 55.4935 47.2932 55.4902 47.2932V47.293C43.2606 47.2364 32.2029 45.5879 32.2029 45.5879C34.4978 44.4476 36.8219 43.3734 39.1067 42.2106C40.5674 41.4671 42.1805 40.4807 43.8646 39.5977L44.007 39.5233" stroke="white" stroke-width="1.5" stroke-miterlimit="10" stroke-linecap="round" stroke-linejoin="round"/>
<path d="M70.8602 61.1105C70.5561 61.7554 69.6753 63.3303 68.1232 63.8661C68.0029 63.9076 68.0029 64.0787 68.1232 64.1202C69.6753 64.6559 70.5561 66.2308 70.8602 66.8757C70.9089 66.9789 71.0558 66.9789 71.1044 66.8757C71.4085 66.2308 72.2893 64.6559 73.8415 64.1202C73.9617 64.0787 73.9617 63.9076 73.8415 63.8661C72.2893 63.3303 71.4085 61.7554 71.1044 61.1105C71.0558 61.0073 70.9089 61.0073 70.8602 61.1105Z" stroke="white" stroke-width="1.5" stroke-miterlimit="10" stroke-linecap="round" stroke-linejoin="round"/>
<path d="M40.9622 28.8336C40.5433 29.7219 39.3302 31.8911 37.1924 32.6289C37.0267 32.6861 37.0267 32.9218 37.1924 32.979C39.3302 33.7168 40.5433 35.8861 40.9622 36.7743C41.0292 36.9164 41.2316 36.9164 41.2986 36.7743C41.7175 35.8861 42.9306 33.7168 45.0684 32.979C45.234 32.9218 45.234 32.6861 45.0684 32.6289C42.9306 31.8911 41.7175 29.7219 41.2986 28.8336C41.2316 28.6915 41.0292 28.6915 40.9622 28.8336Z" stroke="white" stroke-width="1.5" stroke-miterlimit="10" stroke-linecap="round" stroke-linejoin="round"/>
<path d="M63.9407 65.3573C63.5218 66.2456 62.3087 68.4148 60.1709 69.1526C60.0052 69.2098 60.0052 69.4455 60.1709 69.5027C62.3087 70.2405 63.5218 72.4098 63.9407 73.2979C64.0077 73.4401 64.2101 73.4401 64.2771 73.2979C64.696 72.4098 65.9091 70.2405 68.0469 69.5027C68.2125 69.4455 68.2125 69.2098 68.0469 69.1526C65.9091 68.4148 64.696 66.2456 64.2771 65.3573C64.2101 65.2152 64.0077 65.2152 63.9407 65.3573Z" stroke="white" stroke-width="1.5" stroke-miterlimit="10" stroke-linecap="round" stroke-linejoin="round"/>
</g>
<defs>
<filter id="filter0_d_30_204" x="0" y="0.0664062" width="110" height="110" filterUnits="userSpaceOnUse" color-interpolation-filters="sRGB">
<feFlood flood-opacity="0" result="BackgroundImageFix"/>
<feColorMatrix in="SourceAlpha" type="matrix" values="0 0 0 0 0 0 0 0 0 0 0 0 0 0 0 0 0 0 127 0" result="hardAlpha"/>
<feOffset dy="4"/>
<feGaussianBlur stdDeviation="10"/>
<feComposite in2="hardAlpha" operator="out"/>
<feColorMatrix type="matrix" values="0 0 0 0 0.145098 0 0 0 0 0.705882 0 0 0 0 0.972549 0 0 0 0.25 0"/>
<feBlend mode="normal" in2="BackgroundImageFix" result="effect1_dropShadow_30_204"/>
<feBlend mode="normal" in="SourceGraphic" in2="effect1_dropShadow_30_204" result="shape"/>
</filter>
<clipPath id="clip0_30_204">
<rect width="48" height="48" fill="white" transform="translate(31.5 27.0664)"/>
</clipPath>
</defs>
</svg>
