<svg width="65" height="64" viewBox="0 0 65 64" fill="none" xmlns="http://www.w3.org/2000/svg">
<path d="M17.8096 28.7733C21.6496 36.32 27.8363 42.48 35.3829 46.3467L41.2496 40.48C41.9696 39.76 43.0363 39.52 43.9696 39.84C46.9563 40.8267 50.1829 41.36 53.4896 41.36C54.9563 41.36 56.1562 42.56 56.1562 44.0267V53.3333C56.1562 54.8 54.9563 56 53.4896 56C28.4496 56 8.15625 35.7067 8.15625 10.6667C8.15625 9.2 9.35625 8 10.8229 8H20.1562C21.6229 8 22.8229 9.2 22.8229 10.6667C22.8229 14 23.3562 17.2 24.3429 20.1867C24.6362 21.12 24.4229 22.16 23.6762 22.9067L17.8096 28.7733Z" fill="#3C4959"/>
</svg>
