<svg width="111" height="111" viewBox="0 0 111 111" fill="none" xmlns="http://www.w3.org/2000/svg">
<g filter="url(#filter0_d_98_827)">
<circle cx="55.5" cy="51.0664" r="35" fill="#25B4F8"/>
</g>
<g clip-path="url(#clip0_98_827)">
<path d="M51.7963 41.1068C53.1133 42.4237 54.002 44.0857 54.368 45.9127C54.5225 46.6875 55.2095 47.25 56 47.25C56.7905 47.25 57.4775 46.6875 57.6327 45.9113L58.088 43.6327C58.1188 43.479 58.3812 43.4798 58.412 43.632L58.8673 45.912C59.0225 46.6875 59.7095 47.25 60.5 47.25C61.2905 47.25 61.9775 46.6875 62.1327 45.912C62.498 44.085 63.3875 42.4237 64.7045 41.106L65.0375 40.773C65.981 39.8303 66.5 38.5763 66.5 37.242C66.5 34.4895 64.2605 32.25 61.5072 32.25H60.9395L60.2803 32.9093C59.7455 33.4433 59.006 33.75 58.25 33.75C57.494 33.75 56.7545 33.4433 56.2197 32.9093L55.5605 32.25H54.9927C52.2395 32.25 50 34.4895 50 37.2427C50 38.577 50.519 39.831 51.4625 40.773L51.7963 41.1068ZM54.9395 33.75L55.1592 33.969C55.973 34.7835 57.0995 35.25 58.25 35.25C59.4005 35.25 60.527 34.7835 61.3407 33.9698L61.5605 33.75C63.4618 33.7793 65 35.3347 65 37.2427C65 38.1765 64.637 39.0533 63.977 39.7125L63.644 40.0455C62.117 41.5732 61.0857 43.4993 60.662 45.6165C60.6312 45.7703 60.3688 45.7695 60.338 45.6173L59.8827 43.3373C59.7275 42.5625 59.0405 42 58.25 42C57.4595 42 56.7725 42.5625 56.6173 43.3387L56.162 45.6173C56.1312 45.771 55.8688 45.771 55.838 45.6173C55.415 43.5 54.3838 41.5733 52.856 40.0463L52.523 39.7117C51.863 39.0525 51.5 38.1757 51.5 37.2427C51.5 35.3347 53.0383 33.7793 54.9395 33.75Z" fill="white"/>
<path d="M77.7702 55.914C77.3097 55.6432 76.784 55.5 76.2507 55.5C75.1932 55.5 74.2025 56.0662 73.664 56.979L72.3088 59.283C71.9442 57.8355 71.075 56.589 69.824 55.7557C69.6485 55.6388 69.4625 55.5435 69.2772 55.4468C70.7593 54.5183 71.75 52.875 71.75 51C71.75 48.339 69.758 46.1392 67.1878 45.8002C68.6818 43.8533 69.5 41.499 69.5 39C69.5 32.7968 64.4533 27.75 58.25 27.75C52.0467 27.75 47 32.7968 47 39C47 39.5798 47.0495 40.1588 47.1395 40.7333C46.6175 40.5848 46.0693 40.5 45.5 40.5C42.1918 40.5 39.5 43.1918 39.5 46.5C39.5 48.6248 40.613 50.49 42.2833 51.5565C38.4853 52.89 35.75 56.502 35.75 60.75V66.75C35.75 67.299 35.909 67.8068 36.167 68.25H35.75C34.0955 68.25 32.75 69.5955 32.75 71.25C32.75 72.9045 34.0955 74.25 35.75 74.25H64.8898C68.33 74.25 71.5497 72.408 73.2943 69.4432L78.8375 60.0188C79.6738 58.5923 79.1953 56.7502 77.7702 55.914ZM70.9108 59.868C71.0218 60.4207 71.0292 60.9795 70.9287 61.5585L70.9167 61.6493L68.1215 66.4012C67.4517 67.542 66.212 68.25 64.8898 68.25H58.25C57.6297 68.25 57.125 67.7453 57.125 67.125C57.125 66.5047 57.6297 66 58.25 66H63.9387C64.8552 66 65.717 65.5117 66.1895 64.7257L67.8927 61.8862L66.6065 61.1145L64.9032 63.954C64.7015 64.2907 64.331 64.5 63.9387 64.5H58.5905L62.7545 58.2533C63.5877 56.9993 64.9873 56.25 66.4977 56.25C67.388 56.25 68.2505 56.511 68.9923 57.0052C69.9928 57.6712 70.6745 58.6875 70.9108 59.868ZM51.3395 47.8582C53.3083 49.4025 55.709 50.25 58.25 50.25C59.3255 50.25 60.377 50.0798 61.4 49.7775C61.3055 50.1705 61.25 50.5785 61.25 51C61.25 52.8682 62.234 54.5077 63.7085 55.4385C62.8333 55.8982 62.0712 56.5718 61.5057 57.4222L57.2878 63.75H56.9773L55.25 62.5988V60.75C55.25 56.502 52.5147 52.89 48.7167 51.5565C50.0195 50.7248 50.9788 49.407 51.3395 47.8582ZM54.2728 63.75H41.7492L44.063 62.0153C45.1512 61.1992 46.499 60.75 47.8588 60.75C49.1112 60.75 50.324 61.1175 51.3665 61.812L54.2728 63.75ZM70.25 51C70.25 53.0677 68.5677 54.75 66.5 54.75C64.4323 54.75 62.75 53.0677 62.75 51C62.75 48.9323 64.4323 47.25 66.5 47.25C68.5677 47.25 70.25 48.9323 70.25 51ZM48.5 39C48.5 33.624 52.874 29.25 58.25 29.25C63.626 29.25 68 33.624 68 39C68 41.6423 66.9523 44.103 65.0578 45.9562C63.95 46.2735 62.9938 46.9463 62.3158 47.8425C61.0228 48.4403 59.657 48.75 58.25 48.75C55.697 48.75 53.3053 47.7668 51.4745 45.9907C51.317 44.13 50.3105 42.5077 48.8405 41.5185C48.6185 40.692 48.5 39.8468 48.5 39ZM41 46.5C41 44.0182 43.0182 42 45.5 42C47.9818 42 50 44.0182 50 46.5C50 48.9818 47.9818 51 45.5 51C43.0182 51 41 48.9818 41 46.5ZM45.5 52.5C50.0487 52.5 53.75 56.2013 53.75 60.75V61.599L52.1982 60.564C50.909 59.7045 49.4083 59.25 47.8588 59.25C46.1772 59.25 44.5093 59.8057 43.1637 60.8145L39.2502 63.75H38.75C38.201 63.75 37.6933 63.909 37.25 64.167V60.75C37.25 56.2013 40.9513 52.5 45.5 52.5ZM37.25 66.75C37.25 65.9227 37.9227 65.25 38.75 65.25H56.4185C55.9302 65.727 55.625 66.39 55.625 67.125C55.625 67.5293 55.7248 67.908 55.8883 68.25H38.7463C37.9212 68.2477 37.25 67.5757 37.25 66.75ZM77.5437 59.259L72.0005 68.6828C70.5245 71.1915 67.7998 72.75 64.8898 72.75H35.75C34.9227 72.75 34.25 72.0773 34.25 71.25C34.25 70.4227 34.9227 69.75 35.75 69.75H38.7463H38.75H55.25H58.25H64.8898H64.9647V69.7448C66.7887 69.7185 68.489 68.736 69.416 67.1618L74.9577 57.7402C75.3613 57.0532 76.3205 56.8027 77.012 57.2078C77.723 57.6255 77.9615 58.5465 77.5437 59.259Z" fill="white"/>
</g>
<defs>
<filter id="filter0_d_98_827" x="0.5" y="0.0664062" width="110" height="110" filterUnits="userSpaceOnUse" color-interpolation-filters="sRGB">
<feFlood flood-opacity="0" result="BackgroundImageFix"/>
<feColorMatrix in="SourceAlpha" type="matrix" values="0 0 0 0 0 0 0 0 0 0 0 0 0 0 0 0 0 0 127 0" result="hardAlpha"/>
<feOffset dy="4"/>
<feGaussianBlur stdDeviation="10"/>
<feComposite in2="hardAlpha" operator="out"/>
<feColorMatrix type="matrix" values="0 0 0 0 0.145098 0 0 0 0 0.705882 0 0 0 0 0.972549 0 0 0 0.25 0"/>
<feBlend mode="normal" in2="BackgroundImageFix" result="effect1_dropShadow_98_827"/>
<feBlend mode="normal" in="SourceGraphic" in2="effect1_dropShadow_98_827" result="shape"/>
</filter>
<clipPath id="clip0_98_827">
<rect width="48" height="48" fill="white" transform="translate(32 27)"/>
</clipPath>
</defs>
</svg>
