<svg width="25" height="25" viewBox="0 0 25 25" fill="none" xmlns="http://www.w3.org/2000/svg">
<mask id="mask0_122_569" style="mask-type:luminance" maskUnits="userSpaceOnUse" x="1" y="1" width="23" height="22">
<path fill-rule="evenodd" clip-rule="evenodd" d="M7.2353 2.55542H7.6783C10.0113 2.90042 10.6438 4.22442 12.6768 4.22442C14.7098 4.22442 15.3423 2.90042 17.6758 2.55542H17.9268C18.5506 2.55542 19.1683 2.67828 19.7445 2.91699C20.3208 3.1557 20.8445 3.50558 21.2856 3.94666C21.7266 4.38774 22.0765 4.91138 22.3152 5.48767C22.5539 6.06397 22.6768 6.68164 22.6768 7.30542V7.61842C22.6768 9.06992 21.1318 10.7269 20.6768 12.2969C20.1943 13.9639 19.8638 15.3269 19.7668 16.7524C19.5393 20.0929 18.4003 21.5554 17.1768 21.5554C15.3498 21.5554 13.7278 14.0679 12.7083 14.0679C11.6883 14.0679 9.6658 21.5554 8.1768 21.5554C7.2683 21.5554 6.0918 21.0179 5.6498 16.7524C5.4738 15.0554 5.1768 14.0259 4.6768 12.2969C4.2368 10.7769 2.7528 8.96092 2.6768 7.33092C2.64813 6.71446 2.7448 6.09858 2.96095 5.52054C3.1771 4.9425 3.50825 4.41431 3.93437 3.96791C4.36048 3.52151 4.87272 3.16617 5.44008 2.92339C6.00745 2.68061 6.61817 2.55543 7.2353 2.55542Z" fill="white" stroke="white" stroke-width="2"/>
<path d="M8.41797 6.28687L16.6775 8.94986M8.41797 8.94986L16.6775 6.28687" stroke="black" stroke-width="2" stroke-linecap="round"/>
</mask>
<g mask="url(#mask0_122_569)">
<path d="M0.676758 0.0554199H24.6768V24.0554H0.676758V0.0554199Z" fill="#B8B8B8"/>
</g>
</svg>
