<svg width="110" height="111" viewBox="0 0 110 111" fill="none" xmlns="http://www.w3.org/2000/svg">
<g filter="url(#filter0_d_30_241)">
<circle cx="55" cy="51.0664" r="35" fill="#25B4F8"/>
</g>
<g clip-path="url(#clip0_30_241)">
<path d="M70.4597 31.9839C70.2806 31.6393 69.8558 31.5049 69.5116 31.6839C69.167 31.863 69.0326 32.2875 69.2116 32.6321C70.129 34.3979 70.3216 36.4275 69.754 38.3464C69.5277 39.1132 67.5395 45.8471 67.4527 46.1814C67.4355 46.2481 67.3758 46.295 67.3081 46.295H50.7151C50.3266 46.295 50.012 46.6095 50.012 46.9981C50.012 47.3863 50.3266 47.7012 50.7151 47.7012H65.1745L64.7838 49.8498C64.7706 49.9208 64.7091 49.9721 64.6369 49.9721H44.3775C44.3054 49.9721 44.2438 49.9208 44.231 49.8498L43.8399 47.7012H47.6532C48.0414 47.7012 48.3564 47.3863 48.3564 46.9981C48.3564 46.6095 48.0414 46.295 47.6532 46.295H41.7064C41.6386 46.295 41.5789 46.2485 41.5617 46.1818C41.5599 46.1745 41.5577 46.1672 41.5559 46.1598L39.2605 38.3464C38.5658 35.9968 39.0081 33.5238 40.4744 31.5609C41.9407 29.5984 44.1867 28.4727 46.6366 28.4727C47.3658 28.4727 48.0868 28.5745 48.7801 28.7751C52.5268 29.8602 56.488 29.8602 60.2344 28.7751C60.9276 28.5745 61.6487 28.4727 62.3778 28.4727C64.2627 28.4727 66.0714 29.1567 67.4714 30.3989C67.7618 30.6567 68.2064 30.6304 68.4642 30.34C68.722 30.0492 68.6953 29.605 68.4049 29.3472C66.7474 27.8765 64.6069 27.0664 62.3778 27.0664C61.5165 27.0664 60.6636 27.1869 59.8433 27.4242C56.3526 28.4353 52.6619 28.4353 49.1712 27.4242C48.3509 27.1869 47.498 27.0664 46.6366 27.0664C43.7388 27.0664 41.082 28.3979 39.3476 30.7193C37.6132 33.0407 37.0899 35.966 37.9117 38.7437L40.2038 46.5469C40.3858 47.2273 41.0021 47.7012 41.7064 47.7012H42.4106L42.8475 50.1013C42.9819 50.8415 43.6257 51.3783 44.3775 51.3783H47.4416L47.9382 55.6556L47.4427 55.7882C46.93 55.9255 46.5015 56.2544 46.2364 56.714C45.9709 57.1736 45.9006 57.709 46.0379 58.2213C46.2756 59.1079 47.0801 59.6938 47.9572 59.6938C48.104 59.6938 48.2531 59.6763 48.4018 59.6422L48.6545 61.8179L47.9843 61.9977C46.9263 62.2811 46.2961 63.3724 46.5795 64.4308C46.8172 65.317 47.6217 65.9033 48.4988 65.9033C48.6687 65.9033 48.8409 65.8813 49.0126 65.8352L49.1177 65.807L49.3704 67.9804L48.7965 68.1342C48.2839 68.2716 47.8558 68.6004 47.5903 69.06C47.3251 69.5196 47.2548 70.0546 47.3921 70.5673C47.5291 71.0797 47.858 71.5081 48.3175 71.7736C48.6237 71.9501 48.9632 72.0406 49.3074 72.0406C49.4799 72.0406 49.6538 72.0179 49.8249 71.9721L49.834 71.9695L50.0255 73.6179C50.1211 74.4437 50.8206 75.0666 51.6523 75.0666H57.3626C58.1939 75.0666 58.8933 74.4437 58.9893 73.6179L59.4811 69.3848L60.2183 69.1871C61.2759 68.9036 61.9061 67.8123 61.6227 66.7544C61.4081 65.9538 60.731 65.399 59.9557 65.2987L60.2432 62.826L61.0305 62.6151C62.0881 62.332 62.7184 61.2403 62.4349 60.1824C62.2159 59.365 61.5154 58.8036 60.72 58.7208L61.0052 56.2676L61.5718 56.116C62.6301 55.8322 63.26 54.7409 62.9765 53.6829C62.777 52.9384 62.1775 52.4066 61.4711 52.255L61.5732 51.3787H64.6369C65.3891 51.3787 66.0326 50.8415 66.1673 50.1017L66.6042 47.7012H67.3081C68.0167 47.7012 68.636 47.2215 68.8139 46.5348C68.8758 46.2961 70.2165 41.7455 71.1027 38.7452C71.7736 36.4758 71.5455 34.0746 70.4597 31.9839ZM57.5922 73.4553C57.5786 73.5721 57.4797 73.66 57.3626 73.66H51.6519C51.5347 73.66 51.4358 73.5721 51.4223 73.4553L51.2069 71.6015L58.0199 69.776L57.5922 73.4553ZM60.264 67.118C60.3472 67.4271 60.163 67.7457 59.8539 67.8288L49.4609 70.6135C49.3111 70.6538 49.1547 70.6329 49.0207 70.5556C48.8863 70.478 48.7903 70.3531 48.7504 70.2033C48.7101 70.0535 48.7306 69.8972 48.8083 69.7631C48.8859 69.6287 49.0108 69.5328 49.1606 69.4925L59.5536 66.7079C59.6038 66.6943 59.6539 66.6881 59.7037 66.6881C59.9597 66.6877 60.1948 66.8591 60.264 67.118ZM58.5128 65.5309L50.7433 67.6128L50.491 65.4389L58.7816 63.2175L58.5128 65.5309ZM61.0767 60.546C61.1594 60.8551 60.9752 61.1741 60.6661 61.2568L48.6486 64.4769C48.3395 64.56 48.0206 64.3758 47.9378 64.0667C47.855 63.7577 48.0392 63.4391 48.3483 63.3559L60.3658 60.1359C60.416 60.1223 60.4665 60.1161 60.516 60.1161C60.7723 60.1161 61.0074 60.2871 61.0767 60.546ZM61.6183 54.0465C61.701 54.3556 61.5168 54.6746 61.2078 54.7573L56.9114 55.9087C56.5364 56.009 56.3137 56.3947 56.4144 56.7697C56.5148 57.1447 56.9 57.3673 57.2754 57.267L59.5437 56.6591L59.2749 58.9724L50.0274 61.4502L49.7751 59.2767L54.3153 58.0602C54.6907 57.9595 54.913 57.5739 54.8126 57.1989C54.7123 56.8239 54.3267 56.6012 53.9513 56.7015L48.107 58.2678C47.7979 58.3506 47.4793 58.1664 47.3962 57.8573C47.3562 57.7079 47.3768 57.5515 47.4544 57.4171C47.5317 57.2831 47.6569 57.1868 47.8067 57.1469L60.9075 53.6364C61.2165 53.5532 61.5355 53.7378 61.6183 54.0465ZM60.037 52.4136L49.3114 55.2876L48.8573 51.3783H60.1575L60.037 52.4136Z" fill="white"/>
<path d="M59.8433 31.1743C56.3526 32.1854 52.662 32.1854 49.1713 31.1743C48.7985 31.0666 48.4081 31.2812 48.3004 31.6544C48.1924 32.0272 48.407 32.4172 48.7801 32.5252C50.6533 33.0679 52.5803 33.3393 54.5073 33.3393C56.4343 33.3393 58.3613 33.0679 60.2345 32.5252C60.6076 32.4172 60.8226 32.0272 60.7146 31.6544C60.6065 31.2812 60.2161 31.0666 59.8433 31.1743Z" fill="white"/>
</g>
<defs>
<filter id="filter0_d_30_241" x="0" y="0.0664062" width="110" height="110" filterUnits="userSpaceOnUse" color-interpolation-filters="sRGB">
<feFlood flood-opacity="0" result="BackgroundImageFix"/>
<feColorMatrix in="SourceAlpha" type="matrix" values="0 0 0 0 0 0 0 0 0 0 0 0 0 0 0 0 0 0 127 0" result="hardAlpha"/>
<feOffset dy="4"/>
<feGaussianBlur stdDeviation="10"/>
<feComposite in2="hardAlpha" operator="out"/>
<feColorMatrix type="matrix" values="0 0 0 0 0.145098 0 0 0 0 0.705882 0 0 0 0 0.972549 0 0 0 0.25 0"/>
<feBlend mode="normal" in2="BackgroundImageFix" result="effect1_dropShadow_30_241"/>
<feBlend mode="normal" in="SourceGraphic" in2="effect1_dropShadow_30_241" result="shape"/>
</filter>
<clipPath id="clip0_30_241">
<rect width="48" height="48" fill="white" transform="translate(30.5 27.0664)"/>
</clipPath>
</defs>
</svg>
