<svg width="65" height="64" viewBox="0 0 65 64" fill="none" xmlns="http://www.w3.org/2000/svg">
<path d="M11.1666 53.3332C9.69992 53.3332 8.44481 52.8114 7.40125 51.7678C6.3577 50.7243 5.83503 49.4683 5.83325 47.9998V15.9998C5.83325 14.5332 6.35592 13.2781 7.40125 12.2345C8.44659 11.1909 9.7017 10.6683 11.1666 10.6665H53.8333C55.2999 10.6665 56.5559 11.1892 57.6013 12.2345C58.6466 13.2798 59.1684 14.5349 59.1666 15.9998V47.9998C59.1666 49.4665 58.6448 50.7225 57.6013 51.7678C56.5577 52.8132 55.3017 53.3349 53.8333 53.3332H11.1666ZM32.4999 34.6665L53.8333 21.3332V15.9998L32.4999 29.3332L11.1666 15.9998V21.3332L32.4999 34.6665Z" fill="#3C4959"/>
</svg>
