<svg width="24" height="24" viewBox="0 0 24 24" fill="none" xmlns="http://www.w3.org/2000/svg">
<mask id="mask0_152_309" style="mask-type:alpha" maskUnits="userSpaceOnUse" x="0" y="0" width="24" height="24">
<rect width="24" height="24" transform="matrix(-1 0 0 1 24 0)" fill="#D9D9D9"/>
</mask>
<g mask="url(#mask0_152_309)">
<path d="M19 21C19.55 21 20.0208 20.8042 20.4125 20.4125C20.8042 20.0208 21 19.55 21 19V5C21 4.45 20.8042 3.97917 20.4125 3.5875C20.0208 3.19583 19.55 3 19 3H12V5H19V19H12V21H19ZM8 17L9.375 15.55L6.825 13H15V11H6.825L9.375 8.45L8 7L3 12L8 17Z" fill="#E25C5C"/>
</g>
</svg>
