<svg width="209" height="34" viewBox="0 0 209 34" fill="none" xmlns="http://www.w3.org/2000/svg">
<path d="M26.0144 17.0059C26.0467 12.5463 22.492 8.79769 18.0001 8.60379C16.1581 8.50684 14.4131 9.05621 12.9912 9.99337C11.5693 9.05621 9.82421 8.50684 7.98221 8.60379C3.55495 8.76537 -0.0320991 12.514 0.000216648 17.0059C0.000216648 18.4278 0.743479 21.0777 2.65011 22.0795C2.58548 23.566 2.29464 28.5749 5.46158 32.0974C6.7219 33.5192 8.95169 33.5516 10.2443 32.162C10.7291 31.6449 11.1492 30.934 11.3431 30.0291C11.5693 29.092 11.7955 27.7024 11.9894 26.2159C12.1509 25.0525 13.8314 25.0525 13.9929 26.2159C14.2192 27.6701 14.4454 29.0597 14.6393 30.0291C14.8332 30.9663 15.2533 31.6449 15.738 32.162C17.0306 33.5516 19.2604 33.5192 20.5207 32.0974C23.6877 28.6073 23.3968 23.566 23.3322 22.0795C25.2065 21.1746 26.0144 18.4278 26.0144 17.0059ZM5.20306 12.3847C4.58906 12.9018 4.072 13.5158 3.6519 14.2267C3.07022 15.2608 2.74706 16.4242 2.74706 17.5876C2.74706 17.943 2.45622 18.2339 2.06843 18.2339C1.68064 18.2339 1.38979 17.943 1.38979 17.5553C1.38979 16.1657 1.77758 14.7438 2.45622 13.5481C2.94095 12.7079 3.55495 11.9646 4.29821 11.3183C4.58906 11.0921 5.00916 11.1244 5.23537 11.4153C5.52621 11.7384 5.4939 12.1585 5.20306 12.3847ZM6.65727 11.3506L6.528 11.4153C6.43106 11.4799 6.33411 11.4799 6.20484 11.4799C5.97863 11.4799 5.72011 11.3506 5.62316 11.1244C5.46158 10.8013 5.59084 10.3812 5.914 10.2196L6.04327 10.1549C6.36642 9.99337 6.78653 10.1226 6.94811 10.4458C7.10969 10.7689 6.98042 11.1891 6.65727 11.3506Z" fill="#011632"/>
<path d="M19.7775 0.815674C14.4777 0.815674 9.75958 3.36862 6.81885 7.27883C7.17432 7.2142 7.56211 7.18188 7.9499 7.14956C8.07916 7.14956 8.24074 7.14956 8.37 7.14956C8.75779 7.14956 9.14558 7.18188 9.53337 7.2142C9.598 7.14956 9.69495 7.05262 9.75958 6.98799C12.4418 4.30578 15.9965 2.85157 19.7775 2.85157C21.2963 2.85157 22.7828 3.07778 24.2047 3.56251C24.4633 3.56251 26.0467 3.56251 26.0467 3.56251C26.0467 3.56251 26.0467 2.14062 26.0467 2.07599C24.1401 1.26809 22.0073 0.815674 19.7775 0.815674Z" fill="#011632"/>
<path d="M34.6103 10.4458C34.0287 10.4458 33.0269 10.4458 33.0269 10.4458C33.0269 10.4458 33.0269 11.8031 33.0269 11.997C33.6086 13.5804 33.9317 15.2609 33.9317 16.9736C33.9317 20.7545 32.4452 24.3093 29.7953 26.9915C27.9533 28.8335 25.6589 30.1261 23.2029 30.7078C22.7828 31.5157 22.2657 32.2913 21.5871 33.0022C21.5548 33.0345 21.5225 33.0668 21.5225 33.0992C29.666 32.2266 35.9999 25.3434 35.9999 17.0059C35.9676 14.6792 35.4829 12.4494 34.6103 10.4458Z" fill="#011632"/>
<path d="M34.2226 4.88748H31.6374V2.30221C31.6374 1.81748 31.2496 1.42969 30.7648 1.42969H28.3088C27.8241 1.42969 27.4363 1.81748 27.4363 2.30221V4.88748H24.851C24.3663 4.88748 23.9785 5.27526 23.9785 5.76V8.216C23.9785 8.70074 24.3663 9.08853 24.851 9.08853H27.4363V11.6738C27.4363 12.1585 27.8241 12.5463 28.3088 12.5463H30.7648C31.2496 12.5463 31.6374 12.1585 31.6374 11.6738V9.08853H34.2226C34.7074 9.08853 35.0951 8.70074 35.0951 8.216V5.76C35.0951 5.27526 34.7074 4.88748 34.2226 4.88748ZM28.8259 4.532C28.8259 4.75821 28.6643 4.91979 28.4381 4.91979C28.2119 4.91979 28.0503 4.75821 28.0503 4.532V3.59484C28.0503 3.36863 28.2119 3.20705 28.4381 3.20705C28.6643 3.20705 28.8259 3.36863 28.8259 3.59484V4.532ZM28.8259 2.46379C28.8259 2.65769 28.6643 2.85158 28.4381 2.85158C28.2119 2.85158 28.0503 2.69 28.0503 2.46379V2.36684C28.0503 2.14063 28.2119 1.97906 28.4381 1.97906C28.6643 1.97906 28.8259 2.14063 28.8259 2.36684V2.46379Z" fill="#011632"/>
<path d="M62.688 25.672C62.9227 25.6933 63.232 25.7147 63.616 25.736C64 25.736 64.5227 25.736 65.184 25.736C67.8933 25.736 69.9093 25.0533 71.232 23.688C72.576 22.3013 73.248 20.3707 73.248 17.896C73.248 15.3787 72.5973 13.448 71.296 12.104C69.9947 10.76 67.9787 10.088 65.248 10.088C64.0533 10.088 63.2 10.12 62.688 10.184V25.672ZM77.472 17.896C77.472 19.816 77.1733 21.4907 76.576 22.92C75.9787 24.328 75.1253 25.512 74.016 26.472C72.928 27.4107 71.6053 28.1147 70.048 28.584C68.512 29.032 66.8053 29.256 64.928 29.256C64.032 29.256 63.0187 29.2133 61.888 29.128C60.7573 29.064 59.68 28.9147 58.656 28.68V7.144C59.68 6.90933 60.768 6.76 61.92 6.696C63.072 6.632 64.096 6.6 64.992 6.6C66.848 6.6 68.544 6.824 70.08 7.272C71.616 7.69867 72.928 8.38133 74.016 9.32C75.1253 10.2373 75.9787 11.4107 76.576 12.84C77.1733 14.248 77.472 15.9333 77.472 17.896ZM80.7548 20.712C80.7548 19.24 80.9681 17.9493 81.3948 16.84C81.8428 15.7307 82.4294 14.8133 83.1548 14.088C83.8801 13.3413 84.7121 12.7867 85.6508 12.424C86.5894 12.04 87.5494 11.848 88.5308 11.848C90.8348 11.848 92.6268 12.5627 93.9068 13.992C95.2081 15.4213 95.8588 17.5547 95.8588 20.392C95.8588 20.6053 95.8481 20.8507 95.8268 21.128C95.8268 21.384 95.8161 21.6187 95.7948 21.832H84.7548C84.8614 23.176 85.3308 24.2213 86.1628 24.968C87.0161 25.6933 88.2428 26.056 89.8428 26.056C90.7814 26.056 91.6348 25.9707 92.4028 25.8C93.1921 25.6293 93.8108 25.448 94.2588 25.256L94.7708 28.424C94.5574 28.5307 94.2588 28.648 93.8748 28.776C93.5121 28.8827 93.0854 28.9787 92.5948 29.064C92.1254 29.1707 91.6134 29.256 91.0588 29.32C90.5041 29.384 89.9388 29.416 89.3628 29.416C87.8908 29.416 86.6108 29.2027 85.5228 28.776C84.4348 28.328 83.5388 27.72 82.8348 26.952C82.1308 26.1627 81.6081 25.2453 81.2668 24.2C80.9254 23.1333 80.7548 21.9707 80.7548 20.712ZM91.9868 18.984C91.9868 18.4507 91.9121 17.9493 91.7628 17.48C91.6134 16.9893 91.3894 16.5733 91.0908 16.232C90.8134 15.8693 90.4614 15.592 90.0348 15.4C89.6294 15.1867 89.1388 15.08 88.5628 15.08C87.9654 15.08 87.4428 15.1973 86.9948 15.432C86.5468 15.6453 86.1628 15.9333 85.8428 16.296C85.5441 16.6587 85.3094 17.0747 85.1388 17.544C84.9681 18.0133 84.8508 18.4933 84.7868 18.984H91.9868ZM99.964 12.808C100.711 12.5947 101.681 12.392 102.876 12.2C104.071 12.008 105.393 11.912 106.844 11.912C108.209 11.912 109.351 12.104 110.268 12.488C111.185 12.8507 111.911 13.3733 112.444 14.056C112.999 14.7173 113.383 15.528 113.596 16.488C113.831 17.4267 113.948 18.4613 113.948 19.592V29H110.076V20.2C110.076 19.304 110.012 18.5467 109.884 17.928C109.777 17.288 109.585 16.776 109.308 16.392C109.052 15.9867 108.689 15.6987 108.22 15.528C107.772 15.336 107.217 15.24 106.556 15.24C106.065 15.24 105.553 15.272 105.02 15.336C104.487 15.4 104.092 15.4533 103.836 15.496V29H99.964V12.808ZM118.491 7.848L122.363 7.208V12.264H128.315V15.496H122.363V22.312C122.363 23.656 122.576 24.616 123.003 25.192C123.429 25.768 124.155 26.056 125.179 26.056C125.883 26.056 126.501 25.9813 127.035 25.832C127.589 25.6827 128.027 25.544 128.347 25.416L128.987 28.488C128.539 28.68 127.952 28.872 127.227 29.064C126.501 29.2773 125.648 29.384 124.667 29.384C123.472 29.384 122.469 29.224 121.659 28.904C120.869 28.584 120.24 28.1253 119.771 27.528C119.301 26.9093 118.971 26.1733 118.779 25.32C118.587 24.4453 118.491 23.4533 118.491 22.344V7.848ZM135.962 29H132.09V12.264H135.962V29ZM136.378 7.368C136.378 8.09333 136.143 8.66933 135.674 9.096C135.204 9.52267 134.65 9.736 134.01 9.736C133.348 9.736 132.783 9.52267 132.314 9.096C131.844 8.66933 131.61 8.09333 131.61 7.368C131.61 6.62133 131.844 6.03467 132.314 5.608C132.783 5.18133 133.348 4.968 134.01 4.968C134.65 4.968 135.204 5.18133 135.674 5.608C136.143 6.03467 136.378 6.62133 136.378 7.368ZM139.974 20.648C139.974 19.4107 140.166 18.2587 140.549 17.192C140.934 16.104 141.478 15.1653 142.182 14.376C142.907 13.5867 143.782 12.968 144.806 12.52C145.83 12.072 146.982 11.848 148.262 11.848C149.84 11.848 151.334 12.136 152.742 12.712L151.91 15.88C151.462 15.688 150.95 15.528 150.374 15.4C149.819 15.272 149.222 15.208 148.582 15.208C147.067 15.208 145.915 15.688 145.126 16.648C144.336 17.5867 143.942 18.92 143.942 20.648C143.942 22.312 144.315 23.6347 145.062 24.616C145.808 25.576 147.067 26.056 148.838 26.056C149.499 26.056 150.15 25.992 150.79 25.864C151.43 25.736 151.984 25.576 152.454 25.384L152.998 28.584C152.571 28.7973 151.92 28.9893 151.046 29.16C150.192 29.3307 149.307 29.416 148.39 29.416C146.96 29.416 145.712 29.2027 144.646 28.776C143.6 28.328 142.726 27.72 142.022 26.952C141.339 26.1627 140.827 25.2347 140.486 24.168C140.144 23.08 139.974 21.9067 139.974 20.648ZM160.187 26.216C161.211 26.216 161.958 26.0987 162.427 25.864C162.897 25.608 163.131 25.1813 163.131 24.584C163.131 24.0293 162.875 23.5707 162.363 23.208C161.873 22.8453 161.051 22.4507 159.899 22.024C159.195 21.768 158.545 21.5013 157.947 21.224C157.371 20.9253 156.87 20.584 156.443 20.2C156.017 19.816 155.675 19.3573 155.419 18.824C155.185 18.2693 155.067 17.5973 155.067 16.808C155.067 15.272 155.633 14.0667 156.763 13.192C157.894 12.296 159.43 11.848 161.371 11.848C162.353 11.848 163.291 11.944 164.187 12.136C165.083 12.3067 165.755 12.4773 166.203 12.648L165.499 15.784C165.073 15.592 164.529 15.4213 163.867 15.272C163.206 15.1013 162.438 15.016 161.563 15.016C160.774 15.016 160.134 15.1547 159.643 15.432C159.153 15.688 158.907 16.0933 158.907 16.648C158.907 16.9253 158.95 17.1707 159.035 17.384C159.142 17.5973 159.313 17.8 159.547 17.992C159.782 18.1627 160.091 18.344 160.475 18.536C160.859 18.7067 161.329 18.888 161.883 19.08C162.801 19.4213 163.579 19.7627 164.219 20.104C164.859 20.424 165.382 20.7973 165.787 21.224C166.214 21.6293 166.523 22.0987 166.715 22.632C166.907 23.1653 167.003 23.8053 167.003 24.552C167.003 26.152 166.406 27.368 165.211 28.2C164.038 29.0107 162.353 29.416 160.155 29.416C158.683 29.416 157.499 29.288 156.603 29.032C155.707 28.7973 155.078 28.6053 154.715 28.456L155.387 25.224C155.963 25.4587 156.646 25.6827 157.435 25.896C158.246 26.1093 159.163 26.216 160.187 26.216Z" fill="#011632"/>
</svg>
