<svg width="25" height="25" viewBox="0 0 25 25" fill="none" xmlns="http://www.w3.org/2000/svg">
<path d="M7.29676 11.2766C8.73676 14.1066 11.0568 16.4266 13.8868 17.8666L16.0868 15.6666C16.3668 15.3866 16.7568 15.3066 17.1068 15.4166C18.2268 15.7866 19.4268 15.9866 20.6768 15.9866C20.942 15.9866 21.1963 16.0919 21.3839 16.2795C21.5714 16.467 21.6768 16.7214 21.6768 16.9866V20.4866C21.6768 20.7518 21.5714 21.0061 21.3839 21.1937C21.1963 21.3812 20.942 21.4866 20.6768 21.4866C16.1681 21.4866 11.8441 19.6955 8.65594 16.5074C5.46782 13.3193 3.67676 8.99525 3.67676 4.48657C3.67676 4.22136 3.78211 3.967 3.96965 3.77947C4.15719 3.59193 4.41154 3.48657 4.67676 3.48657H8.17676C8.44197 3.48657 8.69633 3.59193 8.88386 3.77947C9.0714 3.967 9.17676 4.22136 9.17676 4.48657C9.17676 5.73657 9.37676 6.93657 9.74676 8.05657C9.85676 8.40657 9.77676 8.79657 9.49676 9.07657L7.29676 11.2766Z" fill="#B8B8B8"/>
</svg>
